HIERARCHY
ROOT Hips
{
  OFFSET 267.745 86.9975 -272.335
  CHANNELS 6 Xposition Yposition Zposition Zrotation Xrotation Yrotation
  JOINT LeftUpLeg
  {
    OFFSET 8.64259 1.95398 -2.38835
    CHANNELS 3 Zrotation Xrotation Yrotation
    JOINT LeftLeg
    {
      OFFSET 43.7702 0 0
      CHANNELS 3 Zrotation Xrotation Yrotation
      JOINT LeftFoot
      {
        OFFSET 40.6238 0 0
        CHANNELS 3 Zrotation Xrotation Yrotation
        JOINT LeftToeBase
        {
          OFFSET 12.7242 0 0
          CHANNELS 3 Zrotation Xrotation Yrotation
          End Site
          {
            OFFSET 0 0 0
          }
        }
      }
    }
  }
  JOINT RightUpLeg
  {
    OFFSET -8.2249 1.95398 -2.59336
    CHANNELS 3 Zrotation Xrotation Yrotation
    JOINT RightLeg
    {
      OFFSET 43.5653 0 0
      CHANNELS 3 Zrotation Xrotation Yrotation
      JOINT RightFoot
      {
        OFFSET 40.6238 0 0
        CHANNELS 3 Zrotation Xrotation Yrotation
        JOINT RightToeBase
        {
          OFFSET 12.7242 0 0
          CHANNELS 3 Zrotation Xrotation Yrotation
          End Site
          {
            OFFSET 0 0 0
          }
        }
      }
    }
  }
  JOINT Spine
  {
    OFFSET 0.165834 0.87714 6.61349
    CHANNELS 3 Zrotation Xrotation Yrotation
    JOINT Spine1
    {
      OFFSET 7.38963 1.71661e-005 0
      CHANNELS 3 Zrotation Xrotation Yrotation
      JOINT Spine2
      {
        OFFSET 11.9445 1.14441e-005 0
        CHANNELS 3 Zrotation Xrotation Yrotation
        JOINT Spine3
        {
          OFFSET 14.7254 4.19617e-005 0
          CHANNELS 3 Zrotation Xrotation Yrotation
          JOINT Spine4
          {
            OFFSET 10.9679 0 0
            CHANNELS 3 Zrotation Xrotation Yrotation
            JOINT RightShoulder
            {
              OFFSET 2.46616 -1.6653 3.69651
              CHANNELS 3 Zrotation Xrotation Yrotation
              JOINT RightArm
              {
                OFFSET 13.0012 0 0
                CHANNELS 3 Zrotation Xrotation Yrotation
                JOINT RightForeArm
                {
                  OFFSET 28.7848 1.52588e-005 0
                  CHANNELS 3 Zrotation Xrotation Yrotation
                  JOINT RightHand
                  {
                    OFFSET 26.5688 1.52588e-005 0
                    CHANNELS 3 Zrotation Xrotation Yrotation
                    End Site
                    {
                      OFFSET 0 0 0
                    }
                  }
                }
              }
            }
            JOINT LeftShoulder
            {
              OFFSET 2.38034 -1.29275 -3.7523
              CHANNELS 3 Zrotation Xrotation Yrotation
              JOINT LeftArm
              {
                OFFSET 16.3182 6.10352e-005 0
                CHANNELS 3 Zrotation Xrotation Yrotation
                JOINT LeftForeArm
                {
                  OFFSET 27.0901 0 0
                  CHANNELS 3 Zrotation Xrotation Yrotation
                  JOINT LeftHand
                  {
                    OFFSET 24.5451 1.52588e-005 0
                    CHANNELS 3 Zrotation Xrotation Yrotation
                    End Site
                    {
                      OFFSET 0 0 0
                    }
                  }
                }
              }
            }
            JOINT Neck
            {
              OFFSET 5.0226 -0.0266342 0
              CHANNELS 3 Zrotation Xrotation Yrotation
              JOINT Head
              {
                OFFSET 6.69364 2.86102e-005 0
                CHANNELS 3 Zrotation Xrotation Yrotation
                End Site
                {
                  OFFSET 0 0 0
                }
              }
            }
          }
        }
      }
    }
  }
}
MOTION
Frames:	17
Frame Time:	0.0416667
16.5564 88.4479 -292.149 37.8966 -36.6868 37.101 147.639 67.3686 102.448 -14.8688 -74.0761 47.1045 -151.929 8.13905 -117.47 25.908 -12.3286 80.4353 -102.211 80.0365 -1.32549 -77.1095 4.0462 3.17907 138.844 -24.4312 18.34 133.117 31.6503 58.9263 -1.02009 -0.342805 -87.145 27.5298 -0.222352 6.06035 15.8447 0.04407 6.06425 -6.58674 -2.03046 5.71558 13.4259 -2.03047 5.71558 92.2168 -78.6649 -93.3891 15.0646 -32.2072 20.9939 -168.766 -41.2521 -128.869 5.49866 -0.972685 -22.6376 -76.775 -32.08 98.8843 -2.37842 16.4627 43.5647 118.165 -57.1218 -129.945 -48.6358 23.5741 -56.6028 -17.1413 -8.34857 -45.0895 -12.7594 -10.8422 26.9299 
16.3881 88.8256 -293.131 38.3262 -36.9592 37.319 148.312 65.9674 101.527 -17.3124 -73.0968 45.2676 -158.561 8.97723 -114.488 25.4771 -11.9932 76.9419 -109.795 80.3355 5.96885 -76.9711 3.52054 3.54839 140.398 -25.4156 18.5501 134.143 30.8885 57.712 -1.03019 -0.294656 -87.1662 27.435 -0.257203 6.02466 15.7501 0.00771371 6.03012 -6.68292 -2.05307 5.67109 13.3297 -2.05306 5.67109 92.0799 -78.4512 -93.5687 14.9901 -32.4076 20.7128 -168.878 -41.4167 -128.649 5.27412 -0.9462 -22.7946 -76.7403 -32.0999 98.9502 -2.90134 16.1251 43.6638 121.173 -55.5463 -129.776 -47.8069 22.9807 -56.333 -16.7868 -8.55238 -44.7612 -13.2127 -11.0071 26.9746 
15.9041 89.9144 -295.916 39.5452 -37.755 37.9595 149.785 61.6279 99.5517 -37.2268 -61.902 27.6714 179.559 18.8239 -102.803 20.2799 -12.2393 64.5373 -133.601 80.2097 28.8464 -76.2159 1.93068 4.65004 145.042 -28.459 19.4285 137.118 28.315 54.0502 -1.05794 -0.156504 -87.2293 27.1627 -0.356452 5.9167 15.4783 -0.0961783 5.92661 -6.95945 -2.11547 5.53829 13.0532 -2.11548 5.53829 91.711 -77.8372 -94.0611 14.778 -32.9663 19.9133 -169.174 -41.8832 -127.978 4.6237 -0.869335 -23.3171 -76.6434 -32.1581 99.134 -4.27806 15.0801 43.8869 127.576 -50.6989 -131.01 -45.6617 21.2891 -55.2281 -15.8136 -9.14561 -43.904 -14.424 -11.516 27.27 
15.2811 90.5174 -300.519 41.3999 -39.0289 38.9914 151.085 55.019 98.0298 -58.6194 -22.0352 13.3784 146.675 44.3128 -64.7952 5.72866 -12.7981 46.6169 -160.724 78.1167 54.039 -76.3631 -0.710909 6.4861 154.335 -33.533 21.8895 141.88 22.6869 47.5525 -1.09849 0.0581231 -87.3354 26.7397 -0.510116 5.73105 15.0561 -0.257816 5.74787 -7.38952 -2.20656 5.31502 12.6231 -2.20655 5.31502 91.1913 -76.8688 -94.7787 14.4492 -33.8113 18.6688 -169.561 -42.6133 -126.799 3.58664 -0.741214 -24.3327 -76.4984 -32.2441 99.4087 -6.17908 13.2699 44.1068 133.953 -42.8633 -135.099 -42.718 19.0687 -53.693 -14.3897 -10.1047 -42.8025 -16.0672 -12.4221 28.2376 
14.6083 89.8739 -307.273 43.6517 -40.6891 40.3223 152.356 46.7289 96.1403 -67.8106 6.00471 12.442 121.049 56.013 -22.5084 -4.8658 -11.8428 36.3588 178.828 74.4373 71.201 -77.4225 -3.76464 8.90813 170.8 -40.7998 27.4838 147.7 10.8042 37.0988 -1.14561 0.32661 -87.4848 26.2109 -0.704669 5.46275 14.5286 -0.463952 5.48837 -7.92787 -2.31188 5.00055 12.0848 -2.3119 5.00055 90.6028 -75.5958 -95.6326 14.0272 -34.8712 17.0559 -169.904 -43.5693 -125.033 2.22466 -0.551168 -25.9499 -76.3219 -32.3408 99.7422 -8.39388 10.7396 44.2592 139.062 -32.7949 -140.784 -39.6512 17.3359 -53.23 -12.6573 -11.3439 -41.6348 -17.8188 -13.7039 30.0943 
13.7697 88.575 -316.199 45.2494 -41.7213 40.7734 153.349 37.2117 94.5774 -70.8801 14.4539 13.4026 110.384 63.37 -4.13057 -9.74411 -10.2975 30.7711 166.061 70.6046 77.705 -76.5312 -5.03604 15.5002 -159.939 -49.8249 39.7388 150.661 -11.7535 21.365 -1.1823 0.532733 -87.7311 25.8654 -0.879174 5.19861 14.1841 -0.649856 5.23212 -8.28132 -2.39912 4.69605 11.7313 -2.39913 4.69604 90.0126 -74.0701 -96.5483 13.5354 -36.0838 15.1477 -170.035 -44.7058 -122.601 0.632438 -0.283029 -28.1938 -76.1328 -32.43 100.099 -10.8443 7.6293 44.3424 142.257 -20.2926 -146.349 -37.6197 16.6734 -54.1272 -10.7237 -12.7359 -40.4177 -19.4338 -15.2552 32.7464 
12.5192 87.2958 -327.593 73.1932 -55.8909 72.7271 158.025 2.76 89.6921 -74.093 15.7381 19.4291 111.683 69.8062 0.00991627 -12.1464 -8.91106 27.1854 162.175 43.5468 71.0122 -78.1262 -0.52292 28.4255 -127.567 -75.3041 45.6081 137.778 -13.8019 19.036 -1.44209 3.12222 -87.6228 20.6201 -1.97848 3.07396 8.94763 -1.8412 3.15794 -13.5903 -2.81172 2.33752 6.42232 -2.81174 2.33752 89.467 -72.3463 -97.4695 12.9974 -37.3999 13.0152 -169.761 -45.9638 -119.44 -1.06252 0.0746036 -30.9983 -75.9507 -32.4966 100.443 -13.5057 4.11266 44.3656 142.488 -3.11407 -150.285 -37.9525 16.5132 -53.3837 -8.72209 -14.1639 -39.1604 -20.6625 -16.9452 36.0746 
11.2275 84.5937 -340.572 106.041 -50.9792 107.772 162.973 -28.9463 99.7494 -73.3954 13.2818 24.9287 130.294 73.0025 -15.5709 -14.562 -8.49362 25.7138 157.228 29.6422 73.2685 -84.9997 -16.6284 27.887 67.4665 -24.5067 -144.165 130.006 -18.0422 12.2357 -1.79568 5.45987 -89.7197 15.9248 -3.36901 1.31625 4.25737 -3.30782 1.46337 -18.3116 -3.60856 0.241666 1.70107 -3.60857 0.241663 88.9961 -70.4826 -98.3542 12.4357 -38.785 10.7269 -168.883 -47.2669 -115.517 -2.71087 0.516012 -34.2197 -75.7952 -32.5316 100.738 -16.3608 0.361597 44.3185 137.371 22.1932 -149.519 -39.4458 14.1494 -45.3632 -6.81769 -15.5352 -37.896 -21.2501 -18.6228 39.98 
10.1245 79.3572 -355.597 103.239 -50.5833 103.519 164.06 -38.0245 102.61 -67.7517 7.64322 25.1904 156.395 67.0987 -41.7404 -18.8473 -9.92531 27.0431 156.117 39.0484 68.9411 -99.171 -33.7565 22.3767 91.7281 23.7728 -137.578 144.146 -29.7974 6.55362 -2.13344 5.32101 -89.5947 16.2693 -4.00355 1.48148 4.60348 -3.9345 1.65647 -17.9808 -4.26343 0.207699 2.03182 -4.26342 0.207699 88.6172 -68.5374 -99.1703 11.8647 -40.2203 8.342 -167.236 -48.5185 -110.842 -4.17026 1.01049 -37.6716 -75.6827 -32.5331 100.951 -19.3872 -3.47562 44.1663 121.356 50.0904 -136.399 -34.0545 7.76792 -31.5824 -5.1748 -16.7929 -36.6644 -20.9929 -20.1188 44.3524 
8.84572 74.0216 -371.289 103.837 -49.5096 102.774 168.229 -50.0451 110.101 -57.2073 1.19029 24.9112 166.375 49.0629 -56.896 -23.9162 -14.4854 32.625 155.888 40.2702 67.0099 -114.224 -41.4467 16.8807 111.384 35.231 -133.875 153.356 -25.4825 12.7297 -2.45564 5.41828 -89.6412 16.0833 -4.6655 1.48494 4.41967 -4.59563 1.6892 -18.1828 -4.8956 0.0108399 1.82983 -4.89561 0.0108464 88.3384 -66.566 -99.8937 11.2864 -41.6952 5.90455 -164.732 -49.6047 -105.473 -5.33323 1.50828 -41.1683 -75.6247 -32.506 101.063 -22.5608 -7.28138 43.8555 89.896 64.7015 -105.033 -23.6535 3.06528 -21.2809 -3.92296 -17.9141 -35.4994 -19.7865 -21.2632 49.0452 
7.48923 69.3913 -386.293 105.447 -48.6009 102.957 179.155 -62.7551 125.676 -39.7725 -4.97359 21.8155 160.07 24.2563 -69.9516 -22.9018 -22.3393 44.9663 155.422 34.0318 67.2423 -126.519 -44.4848 12.598 127.241 32.7753 -127.583 155.175 -18.2473 17.8601 -2.74697 5.58846 -89.6866 15.7504 -5.26841 1.46752 4.08904 -5.1987 1.69852 -18.5322 -5.46519 -0.188393 1.48042 -5.46519 -0.1884 88.1629 -64.6203 -100.504 10.689 -43.197 3.44361 -161.398 -50.4047 -99.5385 -6.13936 1.95334 -44.5451 -75.6269 -32.4588 101.062 -25.8594 -10.9574 43.3188 61.5086 66.2418 -74.919 -16.6978 1.30721 -15.5642 -3.14563 -18.9009 -34.4258 -17.6458 -21.9094 53.8573 
6.12138 65.7724 -400.148 107.358 -48.0243 103.378 -127.638 -73.3542 -172.068 -5.86709 -11.5285 3.88678 132.494 0.685378 -92.0081 -7.64767 -26.2723 63.6387 154.035 20.2306 69.7749 -133.222 -45.1158 10.1548 142.946 27.4059 -119.034 154.027 -12.3565 21.4143 -2.9967 5.77872 -89.7197 15.376 -5.78382 1.45294 3.71688 -5.71428 1.70685 -18.9221 -5.95219 -0.358702 1.09053 -5.95218 -0.358701 88.0915 -62.7493 -100.983 10.0475 -44.6978 0.972934 -157.395 -50.806 -93.2572 -6.57881 2.29679 -47.6678 -75.6898 -32.4018 100.945 -29.2616 -14.4156 42.4832 46.758 64.0036 -57.7828 -13.0363 0.62836 -12.0643 -2.87914 -19.7673 -33.4615 -14.7 -21.9593 58.5329 
4.7418 63.14 -412.957 109.222 -47.8117 103.757 -106.081 -72.2336 -148.394 -0.437182 -20.7568 0.373226 110.448 -0.110229 -108.779 12.4258 -19.7528 75.5289 152.452 2.93321 73.4405 -133.726 -43.3347 9.15153 158.491 24.45 -112.01 152.084 -7.88935 24.1255 -3.20239 5.96484 -89.7399 15.0087 -6.20608 1.44603 3.35149 -6.13639 1.71871 -19.3032 -6.3526 -0.493626 0.709454 -6.3526 -0.493635 88.1237 -60.9954 -101.312 9.32821 -46.1425 -1.50782 -153.008 -50.722 -86.9306 -6.68813 2.51019 -50.4437 -75.8097 -32.3439 100.72 -32.7491 -17.5784 41.2805 39.4774 61.4142 -47.9872 -11.0482 0.311962 -9.67215 -3.12276 -20.5234 -32.6239 -11.1575 -21.385 62.7923 
3.40599 60.1595 -427.854 110.897 -47.931 104.014 -95.8004 -71.6075 -137.842 -0.353576 -27.817 0.37067 94.4277 3.16437 -118.652 26.5694 -11.0053 75.0536 152.053 -10.2898 76.6159 -134.663 -40.212 8.24059 172.354 24.4364 -107.753 150.137 -4.46357 26.3272 -3.36538 6.13968 -89.7498 14.6628 -6.53857 1.44533 3.00716 -6.46864 1.73239 -19.6606 -6.6692 -0.595917 0.352018 -6.66919 -0.595917 88.2597 -59.394 -101.474 8.50206 -47.447 -4.00396 -148.593 -50.1126 -80.9056 -6.53366 2.59051 -52.819 -75.9811 -32.2899 100.395 -36.3049 -20.3773 39.6535 35.5505 59.0609 -41.6169 -9.92746 0.146441 -7.96372 -3.85979 -21.1647 -31.9344 -7.24535 -20.2357 66.38 
2.11743 57.9356 -443.8 112.325 -48.3332 104.142 -87.4467 -71.1078 -129.68 -0.284108 -33.157 0.353789 83.6379 9.46072 -123.02 35.3823 -5.10005 68.8153 152.314 -19.7593 79.1037 -136.134 -36.3875 7.38146 -175.949 26.1629 -106.459 148.471 -1.78437 28.1627 -3.48724 6.30376 -89.7521 14.3372 -6.7859 1.44617 2.68283 -6.71568 1.74442 -19.9951 -6.90523 -0.670321 0.0175086 -6.90522 -0.670318 88.5013 -57.9735 -101.452 7.55782 -48.5001 -6.51293 -144.504 -48.9883 -75.5231 -6.19651 2.55566 -54.7701 -76.1983 -32.2417 99.9825 -39.9047 -22.7467 37.5634 33.187 56.9724 -36.9677 -9.28708 0.0517721 -6.72688 -5.07441 -21.6639 -31.419 -3.16349 -18.6158 69.093 
0.914717 56.8851 -458.134 113.492 -48.9708 104.161 -80.6385 -71.0621 -123.558 -0.254748 -37.4964 0.370979 76.3044 15.5251 -124.14 40.833 -2.04335 61.6307 152.881 -26.656 81.8022 -136.027 -31.5911 6.80556 -166.503 28.482 -108.355 147.165 0.360592 29.7126 -3.56892 6.4609 -89.7495 14.0241 -6.95103 1.44462 2.37063 -6.88069 1.75053 -20.3143 -7.06222 -0.721884 -0.301666 -7.06222 -0.721873 88.8524 -56.7526 -101.227 6.51865 -49.1729 -9.00929 -141.033 -47.4035 -71.0639 -5.76352 2.43876 -56.2971 -76.4549 -32.2035 99.4932 -43.5086 -24.6243 34.9965 31.5826 55.1015 -33.2787 -8.93122 -0.00623531 -5.84063 -6.75712 -21.965 -31.0961 0.932678 -16.6554 70.7844 
-0.125941 56.4914 -470.197 114.398 -49.8097 104.097 -74.3704 -71.3347 -118.297 -0.226706 -41.1322 0.372501 70.999 20.4833 -123.534 44.2013 -0.647273 55.243 153.796 -31.6272 84.6845 -134.827 -26.469 6.43713 -159.199 30.4824 -112.106 146.216 2.12551 31.0347 -3.6106 6.61587 -89.745 13.7139 -7.03592 1.43583 2.0609 -6.96589 1.74553 -20.6277 -7.14049 -0.756164 -0.615038 -7.14049 -0.756168 89.3143 -55.7323 -100.791 5.45542 -49.3452 -11.4333 -138.36 -45.4436 -67.7035 -5.3167 2.28113 -57.4176 -76.742 -32.1918 98.9444 -47.0542 -25.9515 31.963 30.3562 53.4215 -30.1997 -8.76888 -0.0418515 -5.24094 -8.89587 -21.9863 -30.949 4.93199 -14.4959 71.37 
